<?xml version="1.0" encoding="UTF-8"?>
<svg width="160px" height="32px" viewBox="0 0 160 32" version="1.1" xmlns="http://www.w3.org/2000/svg" xmlns:xlink="http://www.w3.org/1999/xlink">
    <!-- Generator: Sketch 49.3 (51167) - http://www.bohemiancoding.com/sketch -->
    <title>logo</title>
    <desc>Created with Sketch.</desc>
    <defs></defs>
    <g id="Page-3" stroke="none" stroke-width="1" fill="none" fill-rule="evenodd">
        <g id="Desktop-col-xl-&gt;=1200" transform="translate(-70.000000, -36.000000)">
            <g id="Header">
                <g id="logo" transform="translate(70.000000, 36.000000)">
                    <rect id="Rectangle-4" fill="#EA003D" x="4" y="23" width="124" height="9"></rect>
                    <path d="M30.634867,7.24657534 L23.5844238,26.7534247 L19.4647531,26.7534247 L15.3450823,15.1643836 L11.1424652,26.7534247 L7.02279443,26.7534247 L0,7.24657534 L5.28092022,7.24657534 L9.31764458,19.5479452 L13.7138033,7.24657534 L17.2528493,7.24657534 L21.4831152,19.7671233 L25.7133812,7.24657534 L30.634867,7.24657534 Z M41.528493,27 C39.5193371,27 37.7682641,26.5936114 36.2752216,25.7808219 C34.7821791,24.9680325 33.6347655,23.8036605 32.8329464,22.2876712 C32.0311273,20.7716819 31.6302237,19.0000101 31.6302237,16.9726027 C31.6302237,14.9451953 32.0357354,13.1826559 32.8467708,11.6849315 C33.6578062,10.1872071 34.8052198,9.03196753 36.289046,8.21917808 C37.7728722,7.40638863 39.5193371,7 41.528493,7 C43.537649,7 45.2841139,7.40638863 46.7679401,8.21917808 C48.2517662,9.03196753 49.3899637,10.1872071 50.1825665,11.6849315 C50.9751693,13.1826559 51.3714648,14.9451953 51.3714648,16.9726027 C51.3714648,19.0000101 50.9751693,20.7716819 50.1825665,22.2876712 C49.3899637,23.8036605 48.2517662,24.9680325 46.7679401,25.7808219 C45.2841139,26.5936114 43.537649,27 41.528493,27 Z M41.528493,23.0821918 C43.0031029,23.0821918 44.1597327,22.561649 44.9984171,21.5205479 C45.8371014,20.4794468 46.2564373,18.9634803 46.2564373,16.9726027 C46.2564373,14.9999901 45.8371014,13.4977221 44.9984171,12.4657534 C44.1597327,11.4337848 43.0031029,10.9178082 41.528493,10.9178082 C40.0538832,10.9178082 38.9018615,11.4292186 38.0723934,12.4520548 C37.2429254,13.474891 36.8281976,14.9817252 36.8281976,16.9726027 C36.8281976,18.9817452 37.2429254,20.5022779 38.0723934,21.5342466 C38.9018615,22.5662152 40.0538832,23.0821918 41.528493,23.0821918 Z M72.0251161,7.24657534 L72.0251161,26.7534247 L68.1819333,26.7534247 L59.2513719,15.6849315 L59.2513719,26.7534247 L54.4128324,26.7534247 L54.4128324,7.24657534 L58.2007176,7.24657534 L67.131279,18.260274 L67.131279,7.24657534 L72.0251161,7.24657534 Z M75.5918109,7.24657534 L83.6376108,7.24657534 C85.8126604,7.24657534 87.6881517,7.63469932 89.264141,8.4109589 C90.8401303,9.18721849 92.047449,10.3059288 92.8861334,11.7671233 C93.7248178,13.2283178 94.1441537,14.9634603 94.1441537,16.9726027 C94.1441537,19.0000101 93.7294258,20.7488511 92.8999578,22.2191781 C92.0704897,23.6895051 90.8677791,24.8127815 89.2917898,25.5890411 C87.7158005,26.3653007 85.831093,26.7534247 83.6376108,26.7534247 L75.5918109,26.7534247 L75.5918109,7.24657534 Z M83.2781764,22.6438356 C85.1951693,22.6438356 86.6282843,22.1735207 87.5775644,21.2328767 C88.5268445,20.2922327 89.0014774,18.8721556 89.0014774,16.9726027 C89.0014774,13.2282918 87.0937295,11.3561644 83.2781764,11.3561644 L80.7897847,11.3561644 L80.7897847,22.6438356 L83.2781764,22.6438356 Z M97.1855213,7.24657534 L111.23111,7.24657534 L111.23111,11.1917808 L102.245251,11.1917808 L102.245251,14.8630137 L110.650485,14.8630137 L110.650485,18.8082192 L102.245251,18.8082192 L102.245251,22.8082192 L111.23111,22.8082192 L111.23111,26.7534247 L97.1855213,26.7534247 L97.1855213,7.24657534 Z M131,26.7534247 L125.497889,26.7534247 L122.9542,20.260274 C122.659278,19.5296767 121.968065,19.1643836 120.88054,19.1643836 L119.000422,19.1643836 L119.000422,26.7534247 L113.885395,26.7534247 L113.885395,7.24657534 L123.037146,7.24657534 C125.414955,7.24657534 127.202893,7.75341959 128.401013,8.76712329 C129.599134,9.78082699 130.198185,11.2283011 130.198185,13.109589 C130.198185,14.4246641 129.843362,15.561639 129.133706,16.5205479 C128.42405,17.4794568 127.424095,18.1598153 126.133812,18.5616438 C126.68679,18.6712334 127.184464,18.9269386 127.626847,19.3287671 C128.06923,19.7305956 128.419444,20.269403 128.677501,20.9452055 L131,26.7534247 Z M122.207683,15.3287671 C123.31364,15.3287671 124.115447,15.159819 124.613128,14.8219178 C125.110809,14.4840166 125.359645,13.9589077 125.359645,13.2465753 C125.359645,12.4977132 125.115417,11.9589058 124.626952,11.630137 C124.138488,11.3013682 123.332073,11.1369863 122.207683,11.1369863 L118.945125,11.1369863 L118.945125,15.3287671 L122.207683,15.3287671 Z" id="WONDER" fill="#FFFFFF"></path>
                    <path d="M146.190476,0 L139.519414,15 L137.671062,15 L131,0 L133.294505,0 L138.605861,12.261236 L143.938462,0 L146.190476,0 Z M160,15 L157.684249,15 L155.793407,10.0070225 C155.595115,9.47331194 155.304764,9.10463585 154.922344,8.90098315 C154.539925,8.69733044 154.015876,8.59550562 153.350183,8.59550562 L150.035897,8.59550562 L150.035897,15 L147.868864,15 L147.868864,0 L154.093773,0 C155.750924,0 157.022096,0.365164888 157.907326,1.09550562 C158.792556,1.82584635 159.235165,2.8721842 159.235165,4.23455056 C159.235165,5.21770154 158.973141,6.05336735 158.449084,6.74157303 C157.925028,7.42977872 157.181446,7.91432444 156.218315,8.19522472 C157.096463,8.34971987 157.73382,8.96769122 158.130403,10.0491573 L160,15 Z M153.838828,6.84691011 C154.943595,6.84691011 155.765077,6.63272686 156.303297,6.20435393 C156.841517,5.775981 157.110623,5.13343125 157.110623,4.27668539 C157.110623,3.41993954 156.845058,2.78441218 156.313919,2.37008427 C155.782781,1.95575636 154.957759,1.74859551 153.838828,1.74859551 L150.035897,1.74859551 L150.035897,6.84691011 L153.838828,6.84691011 Z" id="VR" fill="#FFFFFF"></path>
                </g>
            </g>
        </g>
    </g>
</svg>